<?xml version="1.0" standalone="no"?>
<!DOCTYPE svg PUBLIC "-//W3C//DTD SVG 20010904//EN"
 "http://www.w3.org/TR/2001/REC-SVG-20010904/DTD/svg10.dtd">
<svg version="1.0" xmlns="http://www.w3.org/2000/svg"
 width="700.000000pt" height="700.000000pt" viewBox="0 0 700.000000 700.000000"
 preserveAspectRatio="xMidYMid meet">
<metadata>
Created by potrace 1.14, written by Peter Selinger 2001-2017
</metadata>
<g transform="translate(0.000000,700.000000) scale(0.100000,-0.100000)"
fill="#000000" stroke="none">
<path d="M2269 6624 c-53 -16 -114 -71 -137 -123 -11 -26 -16 -73 -17 -168 -1
-73 -4 -135 -7 -138 -6 -6 -27 -10 -103 -19 -83 -10 -116 -16 -217 -42 -560
-140 -933 -516 -1072 -1079 -8 -33 -18 -78 -21 -100 -4 -22 -9 -53 -11 -70 -3
-16 -7 -41 -10 -55 -14 -86 -18 -375 -18 -1545 0 -1161 5 -1514 19 -1557 2 -7
6 -31 9 -53 9 -76 46 -228 77 -319 168 -496 536 -816 1082 -941 38 -9 87 -18
110 -21 23 -3 48 -7 56 -10 43 -14 376 -18 1501 -18 1260 0 1369 2 1535 28
395 62 745 249 946 508 18 24 36 45 39 48 25 24 91 135 139 235 99 206 144
390 169 695 4 47 7 681 6 1410 -1 1142 -5 1464 -19 1540 -1 8 -6 38 -9 65 -20
154 -94 384 -170 528 -67 129 -82 151 -170 256 -170 204 -418 358 -706 440
-104 29 -300 66 -370 70 -12 1 -15 23 -16 134 0 146 -10 188 -54 237 -106 119
-292 91 -361 -55 -15 -33 -19 -64 -19 -172 0 -120 -2 -133 -17 -134 -22 0
-1818 0 -1855 0 l-27 1 0 131 c-1 105 -4 139 -20 173 -44 101 -155 152 -262
120z m2183 -1012 c3 -147 3 -149 33 -188 42 -55 64 -72 115 -88 61 -18 124
-12 176 19 86 51 111 113 110 278 l-1 119 50 -7 c392 -51 669 -222 820 -507
42 -79 97 -229 108 -293 3 -16 10 -52 15 -80 10 -51 21 -149 26 -242 3 -43 0
-53 -13 -54 -18 -1 -4705 0 -4762 0 l-37 1 4 48 c13 199 33 316 73 440 112
342 339 554 692 646 110 28 159 37 213 39 l39 2 2 -131 c2 -123 4 -135 28
-177 93 -158 315 -147 389 20 15 33 19 68 19 172 l1 131 948 0 948 0 4 -148z
m1453 -2624 c-2 -629 -5 -1154 -8 -1168 -3 -14 -8 -50 -12 -80 -8 -75 -49
-231 -79 -308 -120 -303 -353 -498 -698 -582 -191 -46 -233 -47 -1626 -47
-722 0 -1336 4 -1365 9 -28 4 -68 10 -87 12 -239 28 -473 134 -623 281 -151
149 -257 375 -291 627 -3 18 -8 56 -12 83 -4 28 -8 560 -9 1183 l-1 1132 2406
0 2407 0 -2 -1142z"/>
<path d="M3451 3348 c-140 -24 -232 -132 -237 -276 -4 -110 34 -188 121 -246
120 -80 268 -68 368 29 57 55 79 108 83 196 3 66 0 83 -25 135 -56 119 -181
185 -310 162z"/>
<path d="M4457 3345 c-91 -23 -157 -77 -203 -165 -28 -54 -26 -181 4 -241 30
-60 74 -105 137 -137 69 -36 178 -37 248 -3 104 51 167 152 167 267 0 181
-180 323 -353 279z"/>
<path d="M2380 3335 c-149 -47 -232 -240 -167 -386 50 -113 142 -173 267 -173
87 1 147 24 203 81 58 57 81 116 81 203 1 119 -52 210 -151 260 -59 30 -165
37 -233 15z"/>
<path d="M4518 2335 c-2 -2 -21 -5 -43 -7 -93 -11 -176 -75 -219 -167 -30 -67
-29 -180 3 -244 50 -101 139 -159 249 -163 162 -6 288 106 300 267 11 155 -87
279 -244 308 -24 5 -45 7 -46 6z"/>
<path d="M2369 2310 c-61 -24 -115 -73 -146 -133 -23 -44 -27 -65 -28 -132 0
-68 4 -89 28 -137 49 -100 171 -167 283 -155 246 25 351 322 175 497 -77 76
-207 101 -312 60z"/>
<path d="M3425 2321 c-214 -56 -285 -324 -129 -485 54 -56 116 -80 204 -81 60
0 85 5 124 24 137 68 199 222 146 364 -28 74 -78 129 -142 157 -56 24 -153 34
-203 21z"/>
</g>
</svg>
